<?xml version="1.0" encoding="UTF-8"?>
<svg width="324px" height="474px" viewBox="0 0 324 474" version="1.1" xmlns="http://www.w3.org/2000/svg" xmlns:xlink="http://www.w3.org/1999/xlink">
    <!-- Generator: Sketch 55.2 (78181) - https://sketchapp.com -->
    <title>Untitled</title>
    <desc>Created with Sketch.</desc>
    <g id="Page-1" stroke="none" stroke-width="1" fill="none" fill-rule="evenodd">
        <g id="Unknown" fill-rule="nonzero">
            <g id="a1R4PUUXU-link" fill="#FFC107">
                <path d="M162,0.93 C117.65,0.93 76.36,26.23 45.73,72.18 C16.24,116.4 0.01,174.93 0.01,237 C0.01,299.06 16.24,357.6 45.73,401.82 C76.36,447.77 117.65,473.07 162,473.07 C206.35,473.07 247.64,447.77 278.28,401.82 C307.76,357.6 323.99,299.06 323.99,237 C323.99,174.93 307.76,116.4 278.28,72.18 C247.64,26.23 206.35,0.93 162,0.93 Z M293.33,216.87 C290.96,205.9 289.64,199.81 289.38,198.59 C289.35,198.48 289.33,198.37 289.31,198.27 C289.05,196.86 288.5,195.11 287.92,193.25 C287.48,191.87 287.04,190.45 286.61,188.88 C286.3,187.82 283.82,179.35 283.51,178.29 C282.17,174.78 280.78,171.17 279.35,167.46 C279.34,167.42 279.32,167.37 279.3,167.33 C279.09,166.77 277.42,162.29 277.21,161.72 C276.89,160.98 276.47,160.11 276.02,159.2 C275.63,158.41 275.24,157.62 274.87,156.81 C274.35,155.71 270.18,146.86 269.66,145.75 C261.91,131.77 252.94,119.11 243.7,109.09 C234.95,100.37 224.98,92.94 214.82,87.57 C214.08,87.29 208.17,85.01 207.43,84.73 C206.73,84.46 206.04,84.17 205.35,83.87 C205.16,83.79 204.97,83.7 204.78,83.62 C203.75,83.4 202.74,83.18 201.73,82.97 C201.67,82.96 201.6,82.94 201.54,82.93 C199.3,82.42 197.12,81.89 195.04,81.35 C194.51,81.31 190.26,81.03 189.72,80.99 C188.31,80.94 187.09,80.78 186.18,80.66 C185.97,80.64 185.76,80.6 185.55,80.58 C185.51,80.59 185.47,80.59 185.44,80.59 C184.88,80.64 180.4,81.05 179.84,81.1 C179.67,81.11 179.5,81.12 179.34,81.13 C178.13,81.2 176.98,81.26 175.89,81.32 C175.61,81.39 173.37,81.96 173.09,82.03 C173.04,82.05 173,82.06 172.96,82.07 C169.89,82.82 167.59,83.32 166.14,83.61 C164.74,84.22 162.47,85.17 159.55,86.3 C159.49,86.32 159.44,86.34 159.38,86.36 C159.21,86.43 158.34,86.75 156.78,87.34 C154.84,88.51 153.76,89.16 153.55,89.3 C153.41,89.37 153.27,89.46 153.14,89.53 C153.01,89.61 151.96,90.19 151.83,90.26 C150.69,90.91 149.49,91.58 148.25,92.27 C148.19,92.3 148.14,92.33 148.09,92.36 C147.87,92.53 147.56,92.79 147.31,93 C146.56,93.64 145.63,94.42 144.52,95.21 C144.08,95.54 140.57,98.16 140.13,98.49 C138.42,100.26 136.73,101.94 135.09,103.51 C135.05,103.55 135.01,103.58 134.98,103.61 C134.74,103.83 132.87,105.58 132.64,105.8 C132.49,105.99 132.25,106.3 132.06,106.54 C131.64,107.09 131.21,107.64 130.78,108.16 C129.11,110.24 127.36,112.33 125.56,114.38 C119.3,123.44 113.71,133.62 109.37,143.9 C105.51,154.23 102.44,165.57 100.22,177.61 C99.92,180.85 99.61,183.69 99.27,186.29 C99.19,187 99.08,187.69 98.98,188.37 C98.92,188.79 98.86,189.21 98.82,189.5 C98.81,189.88 98.73,192.9 98.72,193.28 C98.72,193.33 98.72,193.38 98.71,193.43 C98.62,195.94 98.48,198.43 98.3,200.83 C98.31,200.9 98.33,201.47 98.33,201.54 C98.42,203.55 98.51,205.46 98.54,207.36 C98.6,208.65 98.59,209.79 98.57,210.71 C98.57,211.25 98.56,211.98 98.58,212.22 C98.6,212.35 98.61,212.42 98.62,212.54 C98.89,214.63 99.12,216.74 99.31,218.81 C99.44,220.3 99.55,221.79 99.65,223.26 C99.72,223.59 100.23,226.27 100.29,226.6 C100.3,226.66 100.31,226.72 100.32,226.77 C100.96,230.27 101.32,232.77 101.51,234.19 C101.9,235.57 102.57,238 103.34,241.26 C103.36,241.33 103.38,241.4 103.39,241.47 C103.45,241.74 103.95,243.97 104.01,244.25 C104.49,245.49 104.92,246.69 105.35,247.88 C105.99,249.7 106.55,251.44 107.07,253.18 C107.16,253.36 107.26,253.54 107.35,253.73 C107.71,254.43 108.18,255.36 108.65,256.46 C109.3,257.91 109.89,259.33 110.45,260.72 C111.42,262.28 112.29,263.8 113.11,265.32 C113.16,265.41 113.21,265.5 113.26,265.59 C113.34,265.76 114.03,267.1 114.12,267.27 C114.4,267.63 114.77,268.11 115.18,268.68 C116.26,270.15 117.31,271.7 118.31,273.31 C122.15,277.72 126.16,281.44 129.97,284.13 C132.91,285.68 136.04,286.8 139.3,287.46 C140.38,287.37 141.4,287.34 142.39,287.35 C142.4,287.34 142.42,287.34 142.43,287.34 C143.26,287.13 144.06,286.96 144.84,286.83 C145.29,286.62 145.77,286.42 146.26,286.22 C149.15,284.92 151.16,283.34 152.38,282.38 C158.7,277.4 164.26,278.34 167.82,279.99 C172.56,282.2 175.66,286.92 175.82,292.14 C175.98,297.34 173.24,301.97 169.06,304.46 C167.02,306.05 162.9,309.15 157.06,311.7 C156.83,311.8 156.59,311.89 156.36,311.98 C156.13,312.08 155.58,312.35 155.18,312.56 C155.15,312.57 154.96,312.66 154.94,312.67 C153.22,313.54 151.33,314.03 149.4,314.12 C149.39,314.12 149.38,314.12 149.38,314.12 C149.24,314.16 148.14,314.49 148.01,314.53 C147.47,314.68 146.93,314.8 146.38,314.89 C144.43,315.21 142.83,315.1 141.97,315.01 C141.87,315.01 141.51,315.02 140.73,315.12 C140.1,315.21 139.47,315.26 138.84,315.26 C138.13,315.26 137.43,315.2 136.73,315.1 C129.43,313.97 122.47,311.6 116.03,308.04 C115.64,307.83 115.27,307.6 114.9,307.35 C108.61,303.05 102.44,297.37 96.56,290.45 C96.08,289.88 95.64,289.26 95.25,288.62 C94.46,287.32 93.67,286.13 92.82,284.98 C92.72,284.85 92.63,284.72 92.54,284.59 C92.5,284.54 92.42,284.43 92.33,284.32 C91.85,283.71 91.12,282.77 90.39,281.57 C90.23,281.3 90.07,281.02 89.93,280.73 C89.8,280.49 88.83,278.58 88.71,278.35 C88.02,277.08 87.26,275.79 86.39,274.43 C85.94,273.71 85.56,272.96 85.24,272.18 C84.6,270.58 83.99,269.07 83.38,267.73 C83.28,267.51 83.18,267.29 83.1,267.07 C82.99,266.84 82.85,266.58 82.72,266.33 C82.09,265.09 81.14,263.24 80.51,260.91 C80.13,259.65 79.72,258.39 79.25,257.06 C78.82,255.85 78.37,254.63 77.85,253.32 C77.6,252.66 77.39,251.98 77.23,251.28 C77.15,250.91 76.49,247.93 76.41,247.55 C75.45,243.55 74.7,241.1 74.7,241.08 C74.69,241.05 74.68,241.02 74.67,240.99 C74.55,240.59 74.45,240.18 74.36,239.76 C74.33,239.58 74.31,239.38 74.27,239.19 C74.24,238.97 74.19,238.74 74.17,238.51 C74.17,238.49 73.89,236.1 73.11,231.76 C73.03,231.35 72.39,228.01 72.31,227.6 C72.2,227.01 72.12,226.41 72.09,225.8 C72,224.33 71.89,222.82 71.75,221.32 C71.6,219.62 71.41,217.88 71.19,216.14 C70.86,213.83 70.89,211.81 70.91,210.31 C70.92,209.64 70.93,209.06 70.91,208.63 C70.9,208.44 70.89,208.25 70.88,208.06 C70.86,206.47 70.78,204.68 70.69,202.78 C70.69,202.62 70.63,201.35 70.62,201.19 C70.6,200.63 70.6103425,200.06 70.66,199.48 C70.84,197.24 70.98,194.88 71.07,192.49 C71.07,192.45 71.07,192.15 71.08,192.11 C71.11,190.87 71.14,189.61 71.18,188.34 C71.18,188.15 71.19,187.97 71.2,187.79 C71.3,186.41 71.48,185.21 71.62,184.26 C71.68,183.87 71.74,183.48 71.79,183.08 C71.8,182.99 71.81,182.89 71.82,182.79 C72.14,180.37 72.44,177.65 72.73,174.47 C72.77,174.07 72.82,173.67 72.89,173.27 C75.43,159.29 79.02,146.05 83.57,133.93 C83.63,133.76 83.7,133.59 83.77,133.43 C88.96,121.06 95.72,108.78 103.31,97.92 C103.61,97.49 103.94,97.08 104.28,96.68 C106.01,94.74 107.68,92.75 109.26,90.77 C109.33,90.68 109.41,90.59 109.48,90.5 C109.71,90.22 109.94,89.93 110.17,89.63 C110.83,88.77 111.65,87.71 112.69,86.61 C112.89,86.41 113.09,86.21 113.29,86.02 C113.56,85.76 115.75,83.72 116.02,83.47 C117.61,81.95 119.27,80.28 120.95,78.52 C121.48,77.97 122.05,77.47 122.67,77.01 C123.21,76.61 127.55,73.36 128.1,72.95 C128.22,72.86 128.34,72.77 128.47,72.68 C128.65,72.55 129.14,72.14 129.5,71.84 C130.85,70.7 132.66,69.18 135.06,67.95 C136.18,67.33 137.26,66.72 138.3,66.14 C138.42,66.07 139.03,65.72 140.13,65.08 C142.17,63.84 143.3,63.16 143.53,63.02 C144.28,62.56 145.06,62.18 145.89,61.88 C146.26,61.74 149.26,60.61 149.64,60.47 C153.73,58.89 156.2,57.77 156.22,57.75 C156.34,57.7 156.46,57.66 156.58,57.61 C156.79,57.52 157,57.44 157.21,57.36 C157.45,57.28 157.68,57.2 157.91,57.12 C158.11,57.06 158.31,57.01 158.51,56.95 C158.77,56.89 159.03,56.83 159.29,56.77 C159.4,56.75 159.5,56.72 159.61,56.7 C159.69,56.69 162.07,56.26 166.28,55.23 C166.69,55.12 169.95,54.29 170.36,54.18 C171.23,53.96 172.11,53.82 173,53.78 C174.43,53.7 175.97,53.61 177.61,53.53 C178.11,53.48 182.14,53.12 182.65,53.08 C185.58,52.7 188.05,53.02 189.72,53.23 C190.09,53.28 190.6,53.35 190.78,53.36 C190.96,53.36 191.13,53.37 191.31,53.38 C192,53.43 197.53,53.79 198.22,53.84 C199.13,53.9 200.04,54.05 200.93,54.29 C202.99,54.85 205.22,55.4 207.54,55.93 C208.81,56.2 210.09,56.48 211.39,56.75 C211.72,56.82 212.03,56.9 212.35,56.99 C213.98,57.47 215.35,58.06 216.34,58.49 C216.64,58.62 216.93,58.75 217.23,58.86 C217.26,58.88 217.3,58.89 217.32,58.9 C218.14,59.21 224.68,61.73 225.5,62.04 C225.98,62.23 226.45,62.44 226.91,62.68 C233.36,66.03 239.6,69.94 245.61,74.36 C248.93,78.49 252.15,82.88 255.25,87.53 C281.74,127.25 296.33,180.34 296.33,237 C296.33,237.31 296.32,237.61 296.32,237.91 C295.92,235.11 294.93,228.09 293.33,216.87 Z M156.35,31.12 C156.29,31.15 156.23,31.16 156.18,31.18 C155.91,31.26 154.55,31.68 152.11,32.44 C149.16,33.91 147.53,34.72 147.2,34.88 C147.15,34.91 147.1,34.93 147.05,34.95 C146.39,35.27 141.12,37.8 140.46,38.12 C140.3,38.19 140.14,38.27 139.98,38.34 C139.59,38.55 138.7,39.18 138.04,39.64 C137.1,40.3 136.04,41.05 134.84,41.79 C134.41,42.08 132.21,43.52 128.27,46.11 C124.13,49.69 121.83,51.68 121.37,52.07 C121.32,52.12 121.26,52.16 121.21,52.21 C120.04,53.19 118.85,54.18 117.66,55.19 C117.29,55.55 116.8,56.1 116.32,56.63 C115.77,57.24 115.22,57.85 114.67,58.43 C113.94,59.2 108.13,65.35 107.41,66.12 C98.11,77.74 89.64,91.27 82.89,105.3 C76.68,119.31 71.37,135.42 67.53,151.92 C67.33,153.11 65.71,162.6 65.5,163.79 C65.37,164.61 65.2,165.46 65.04,166.3 C64.86,167.26 64.7,168.1 64.59,168.83 C64.54,169.39 64.11,173.86 64.06,174.42 C63.69,178.09 63.31,181.65 62.9,185.07 C62.87,186.03 62.64,193.71 62.61,194.67 C62.59,196.21 62.51,197.63 62.44,198.88 C62.35,200.42 62.27,201.75 62.34,202.74 C62.35,202.87 62.36,203.01 62.37,203.14 C62.4,203.98 62.66,210.71 62.7,211.55 C62.7,211.62 62.7,211.68 62.7,211.75 C62.72,212.41 62.85,217.72 62.87,218.38 C63.1,220.4 63.31,222.27 63.5,223.97 C64.13,229.7 64.47,233.5 64.6,235.09 C64.92,236.68 65.64,240.43 66.57,245.82 C66.62,246.17 66.91,247.89 67.42,250.98 C68.37,254.5 68.9,256.46 69,256.85 C69.02,256.93 69.04,257.01 69.06,257.09 C69.24,257.81 70.7,263.65 70.88,264.38 C70.92,264.54 70.96,264.71 71,264.87 C71.11,265.43 71.51,266.51 71.9,267.55 C72.3,268.61 72.75,269.82 73.18,271.17 C73.42,271.9 75.36,277.75 75.61,278.48 C76.87,281.22 78.01,283.79 79.07,286.29 C79.09,286.32 79.1,286.36 79.12,286.4 C79.27,286.78 80.54,289.83 80.7,290.22 C80.86,290.53 81.11,290.97 81.36,291.4 C81.72,292.03 82.08,292.66 82.43,293.3 C83.83,295.83 85.23,298.47 86.59,301.16 C92.52,310.39 99.13,318.59 105.75,324.9 C111.8,329.98 118.37,334.03 125.28,336.97 C127.31,337.42 129.13,337.88 130.8,338.37 C131.31,338.51 131.76,338.65 132.14,338.77 C132.26,338.78 133.3,338.84 133.43,338.85 C133.53,338.86 133.63,338.87 133.74,338.87 C135.24,339 136.73,339.17 138.18,339.39 C139.27,339.28 140.39,339.18 141.55,339.12 C142.58,339.03 143.48,339.03 144.16,339.04 C145.45,338.7 146.71,338.4 147.94,338.15 C148.68,338 149.42,337.86 150.16,337.74 C150.27,337.69 151.18,337.29 151.29,337.25 C151.4,337.2 151.5,337.16 151.61,337.11 C153.47,336.36 154.98,335.82 156.15,335.44 C157.23,334.77 158.68,333.91 160.45,332.96 C160.57,332.9 160.68,332.84 160.8,332.79 C160.9,332.74 161.69,332.35 161.79,332.3 C162.44,331.74 163.09,331.21 163.73,330.7 C164.81,329.85 165.9,329.04 166.98,328.29 C167.48,327.71 168.14,326.97 168.96,326.18 C169.88,325.24 170.79,324.39 171.62,323.64 C172.6,322.27 173.59,320.99 174.57,319.8 C174.66,319.69 174.75,319.58 174.84,319.48 C175.16,319.11 175.49,318.73 175.82,318.36 C175.82,318.35 175.83,318.34 175.83,318.34 C176.13,317.82 176.43,317.3 176.73,316.81 C177.72,315.18 178.76,313.59 179.85,312.07 C183.13,305.66 185.92,298.84 187.94,292.27 C189.49,285.87 190.54,278.94 191.09,271.65 C190.97,269.58 190.93,267.82 190.96,266.19 C190.95,265.67 190.97,265.18 190.99,264.69 C190.97,264.53 190.81,263.26 190.79,263.1 C190.77,263.01 190.76,262.92 190.75,262.82 C190.58,261.33 190.47,259.93 190.41,258.58 C190.16,257.45 189.92,256.3 189.73,255.15 C188.57,249.25 187.19,245.3 186.44,243.17 C185.61,240.8 183.68,235.27 187.41,229.5 C189.72,225.92 193.59,223.59 197.84,223.22 C204.84,222.62 211.07,227.32 212.54,234 C212.55,234.01 212.55,234.02 212.55,234.02 C213.47,236.64 215.38,242.09 216.92,250.07 C216.95,250.2 216.97,250.34 217,250.48 C217.13,251.34 217.4,252.54 217.69,253.82 C217.9,254.74 218.01,255.69 218.03,256.63 C218.04,257.5 218.11,258.51 218.23,259.61 C218.26,259.85 218.51,261.76 218.54,262 C218.58,262.27 218.6,262.53 218.62,262.79 C218.72,264.12 218.66,265.22 218.63,265.88 C218.63,265.91 218.62,266.12 218.62,266.15 C218.62,266.26 218.62,266.37 218.62,266.48 C218.6,267.65 218.64,269.1 218.75,270.9 C218.79,271.49 218.79,272.09 218.75,272.69 C218.11,282.01 216.75,290.94 214.72,299.22 C214.66,299.47 214.59,299.71 214.52,299.95 C211.87,308.68 208.3,317.36 203.91,325.75 C203.58,326.38 203.21,326.99 202.79,327.56 C201.93,328.72 201.13,329.92 200.35,331.22 C200.27,331.35 200.2,331.47 200.11,331.59 C200.06,331.68 199.98,331.83 199.9,331.97 C199.47,332.73 198.88,333.77 198.05,334.89 C197.85,335.16 197.64,335.42 197.42,335.67 C196.88,336.29 196.35,336.9 195.83,337.5 C195.03,338.49 194.19,339.6 193.35,340.8 C192.75,341.67 192.05,342.46 191.27,343.16 C190.16,344.15 189.33,344.91 188.6,345.67 C188.43,345.84 188.25,346.02 188.07,346.19 C187.98,346.3 187.88,346.41 187.78,346.52 C186.82,347.63 185.26,349.42 182.92,350.9 C182.26,351.34 181.59,351.85 180.9,352.39 C180.17,352.97 179.43,353.59 178.67,354.26 C177.77,355.05 176.77,355.73 175.7,356.27 C175.46,356.38 173.56,357.33 173.33,357.45 C171.18,358.6 169.88,359.49 169.87,359.5 C168.35,360.56 166.7,361.27 165,361.65 C164.49,361.81 163.53,362.13 162.16,362.68 C161.9,362.8 159.78,363.72 159.52,363.83 C158.31,364.35 157.05,364.7 155.74,364.87 C155.03,364.96 154.27,365.09 153.49,365.25 C152.64,365.42 151.75,365.64 150.82,365.89 C147.8,366.83 145.27,366.75 143.88,366.7 C143.87,366.7 143.75,366.7 143.74,366.7 C143.52,366.72 143.3,366.73 143.09,366.74 C142.3,366.77 141.22,366.88 140.07,367 C139.97,367.01 139.18,367.08 139.08,367.09 C138.63,367.14 138.18,367.16 137.73,367.16 C136.88,367.16 136.04,367.08 135.21,366.93 C134.08,366.72 132.87,366.56 131.62,366.46 C131.36,366.44 129.28,366.31 129.02,366.3 C128.58,366.27 128.14,366.23 127.7,366.16 C125.97,365.89 124.59,365.42 123.76,365.14 C123.74,365.13 123.54,365.07 123.52,365.06 C123.38,365.02 123.23,364.98 123.09,364.94 C121.78,364.55 120.23,364.16 118.34,363.78 C117.52,363.6 116.72,363.36 115.94,363.04 C105.81,358.92 96.27,353.11 87.59,345.78 C87.39,345.61 87.2,345.44 87.01,345.26 C78.41,337.12 70.29,327.08 62.88,315.43 C62.64,315.05 62.41,314.65 62.2,314.23 C60.88,311.61 59.53,309.05 58.18,306.61 C58.13,306.52 58.08,306.43 58.03,306.34 C57.82,305.95 57.6,305.57 57.38,305.19 C56.85,304.27 56.19,303.13 55.56,301.79 C55.47,301.59 55.39,301.39 55.3,301.19 C55.13,300.78 53.76,297.47 53.59,297.05 C52.55,294.62 51.43,292.11 50.17,289.38 C49.95,288.91 49.76,288.42 49.6,287.93 C49.32,287.11 47.16,280.59 46.89,279.78 C46.86,279.69 46.83,279.6 46.8,279.51 C46.59,278.85 46.3,278.06 45.99,277.22 C45.34,275.48 44.53,273.32 43.99,270.85 C43.87,270.39 43.29,268.07 42.25,263.9 C41.22,260.07 40.65,257.94 40.53,257.52 C40.41,257.08 40.32,256.63 40.24,256.17 C40.15,255.6 39.38,251 39.29,250.43 C38.15,243.84 37.34,239.81 37.33,239.77 C37.31,239.71 37.31,239.64 37.3,239.57 C37.25,239.35 37.23,239.13 37.2,238.91 C37.16,238.67 37.13,238.43 37.11,238.19 C37.1,238.15 37.09,238.1 37.09,238.06 C37.08,238.02 36.78,234.05 36,227.02 C35.8,225.21 35.57,223.15 35.31,220.91 C35.26,220.5 35.23,220.08 35.22,219.67 C35.21,219.19 35.15,216.82 35.05,212.54 C34.86,207.66 34.75,204.95 34.73,204.41 C34.56,201.77 34.7,199.4 34.82,197.29 C34.88,196.21 34.94,195.18 34.95,194.22 C34.95,194.14 34.95,194.05 34.96,193.96 C34.99,192.93 35.23,184.66 35.26,183.62 C35.27,183.21 35.31,182.8 35.35,182.39 C35.77,178.96 36.16,175.37 36.52,171.73 C36.58,171.15 37.02,166.51 37.08,165.93 C37.09,165.78 37.11,165.64 37.13,165.49 C37.34,163.86 37.62,162.38 37.87,161.07 C38,160.44 38.12,159.8 38.23,159.15 C38.36,158.38 39.42,152.2 39.55,151.43 C46.46,127.85 56.28,106.21 68.74,87.52 C94.08,49.52 127.2,28.59 162,28.59 C162.69,28.59 163.37,28.61 164.06,28.63 C164.06,28.63 157.12,30.87 156.35,31.12 Z M29.67,249.9 C29.98,252.14 30.31,254.54 30.67,257.14 C30.85,257.97 32.31,264.6 32.5,265.42 C32.5,265.46 32.51,265.49 32.52,265.52 C32.73,266.51 34.41,274.42 34.62,275.41 C34.65,275.52 34.67,275.62 34.69,275.73 C34.96,277.14 35.51,278.91 36.09,280.78 C36.52,282.15 36.96,283.57 37.39,285.12 C37.7,286.18 40.17,294.65 40.48,295.71 C41.83,299.21 43.22,302.83 44.65,306.55 C44.66,306.59 44.68,306.63 44.7,306.68 C44.91,307.24 46.58,311.72 46.79,312.28 C47.11,313.03 47.54,313.9 47.99,314.82 C48.38,315.62 48.77,316.42 49.15,317.23 C49.67,318.33 53.82,327.15 54.34,328.25 C62.09,342.22 71.06,354.89 80.3,364.91 C89.05,373.63 99.02,381.06 109.18,386.43 C109.92,386.71 115.82,388.98 116.55,389.27 C117.27,389.54 117.97,389.84 118.66,390.14 C118.85,390.22 119.03,390.3 119.22,390.38 C119.53,390.45 121.96,390.97 122.27,391.03 C122.33,391.04 122.39,391.06 122.45,391.07 C124.61,391.56 126.79,392.09 128.95,392.65 C129.48,392.69 133.74,392.98 134.27,393.01 C135.68,393.07 136.91,393.22 137.81,393.34 C138.03,393.36 138.24,393.4 138.45,393.42 C138.48,393.42 138.52,393.41 138.56,393.41 C139.12,393.36 143.62,392.96 144.19,392.91 C144.33,392.9 144.48,392.89 144.63,392.87 C144.86,392.86 146.02,392.8 148.1,392.68 C149.81,392.25 150.76,392 150.95,391.96 C150.98,391.95 151.01,391.94 151.04,391.93 C154.11,391.18 156.4,390.69 157.85,390.4 C159.26,389.79 161.52,388.84 164.44,387.7 C164.49,387.68 164.55,387.66 164.6,387.64 C164.86,387.54 166.96,386.76 167.22,386.66 C168.24,386.05 169.31,385.4 170.43,384.72 C170.58,384.63 170.72,384.54 170.87,384.46 C171.35,384.19 175.25,382.01 175.74,381.74 C175.79,381.7 175.85,381.68 175.91,381.64 C176.12,381.47 176.44,381.2 176.69,380.99 C177.44,380.36 178.37,379.58 179.47,378.79 C179.91,378.46 183.43,375.84 183.87,375.51 C185.56,373.76 187.24,372.09 188.89,370.5 C188.94,370.46 188.98,370.42 189.02,370.38 C189.26,370.16 191.13,368.41 191.36,368.2 C191.51,368 191.75,367.7 191.94,367.46 C192.36,366.91 192.79,366.36 193.22,365.84 C194.9,363.74 196.65,361.65 198.43,359.62 C204.69,350.57 210.28,340.38 214.62,330.11 C218.49,319.76 221.56,308.42 223.77,296.39 C224.08,293.1 224.4,290.25 224.73,287.7 C224.81,287 224.91,286.31 225.02,285.63 C225.08,285.21 225.14,284.79 225.17,284.51 C225.18,284.13 225.26,281.1 225.27,280.72 C225.27,280.67 225.28,280.63 225.28,280.58 C225.37,278.06 225.51,275.57 225.69,273.17 C225.69,273.11 225.67,272.67 225.67,272.61 C225.58,270.55 225.49,268.59 225.45,266.64 C225.39,265.35 225.41,264.23 225.42,263.3 C225.43,262.77 225.44,262.03 225.41,261.79 C225.39,261.66 225.39,261.59 225.37,261.46 C225.1,259.34 224.87,257.23 224.69,255.19 C224.55,253.71 224.44,252.21 224.34,250.74 C224.28,250.4 223.77,247.75 223.7,247.41 C223.69,247.35 223.68,247.29 223.67,247.23 C223.04,243.73 222.68,241.23 222.49,239.81 C222.09,238.43 221.43,236.01 220.65,232.75 C220.63,232.68 220.62,232.61 220.61,232.55 C220.54,232.27 220.05,230.04 219.99,229.76 C219.53,228.56 219.08,227.34 218.65,226.12 C218.01,224.29 217.44,222.56 216.93,220.83 C216.84,220.65 216.74,220.47 216.65,220.28 C216.29,219.58 215.81,218.65 215.35,217.54 C214.69,216.09 214.09,214.63 213.55,213.28 C212.6,211.76 211.71,210.22 210.88,208.69 C210.83,208.59 210.78,208.5 210.73,208.4 C210.65,208.23 209.96,206.89 209.88,206.73 C209.52,206.27 209.17,205.81 208.83,205.34 C207.75,203.87 206.69,202.31 205.69,200.7 C201.85,196.29 197.85,192.57 194.03,189.87 C191.09,188.32 187.97,187.21 184.7,186.54 C183.62,186.63 182.6,186.67 181.61,186.66 C181.6,186.66 181.59,186.66 181.58,186.67 C180.75,186.88 179.94,187.04 179.15,187.18 C178.7,187.39 178.22,187.59 177.73,187.78 C174.84,189.08 172.83,190.66 171.62,191.62 C165.3,196.6 159.74,195.67 156.18,194.02 C151.45,191.82 148.35,187.11 148.18,181.9 C148,176.68 150.75,172.04 154.94,169.55 C156.98,167.95 161.1,164.85 166.93,162.3 C167.17,162.2 167.41,162.1 167.66,162.01 C167.9,161.91 168.5,161.61 168.94,161.39 C168.95,161.38 169.03,161.34 169.04,161.34 C170.77,160.47 172.66,159.98 174.58,159.89 C174.6,159.89 174.61,159.89 174.62,159.89 C174.75,159.85 175.86,159.52 175.99,159.48 C176.52,159.33 177.07,159.2 177.61,159.11 C179.56,158.79 181.16,158.91 182.03,158.99 C182.11,159.02 182.46,158.99 183.24,158.88 C184.58,158.7 185.93,158.71 187.27,158.91 C194.57,160.04 201.53,162.41 207.97,165.96 C208.35,166.18 208.73,166.41 209.1,166.66 C215.39,170.96 221.56,176.65 227.43,183.57 C227.91,184.13 228.35,184.73 228.73,185.36 C229.52,186.68 230.33,187.88 231.19,189.04 C231.27,189.16 231.35,189.27 231.43,189.38 C231.47,189.43 231.55,189.54 231.64,189.65 C232.13,190.28 232.88,191.23 233.62,192.47 C233.78,192.73 233.92,193 234.06,193.27 C234.19,193.51 235.17,195.42 235.29,195.66 C235.99,196.95 236.76,198.26 237.59,199.56 C238.04,200.28 238.44,201.04 238.75,201.83 C239.37,203.35 240,204.93 240.62,206.28 C240.72,206.5 240.81,206.72 240.9,206.94 C241.01,207.17 241.15,207.43 241.28,207.69 C241.91,208.93 242.85,210.77 243.49,213.11 C243.86,214.34 244.28,215.6 244.75,216.95 C245.19,218.2 245.66,219.46 246.13,220.66 C246.4,221.34 246.61,222.03 246.77,222.74 C246.85,223.11 247.5,226.08 247.59,226.45 C248.54,230.45 249.29,232.91 249.3,232.93 C249.36,233.13 249.4,233.33 249.45,233.53 C249.51,233.75 249.57,233.97 249.62,234.2 C249.67,234.47 249.71,234.73 249.75,235 C249.77,235.17 249.81,235.34 249.83,235.51 C249.85,235.67 250.12,238.04 250.88,242.23 C251.07,243.21 251.27,244.26 251.48,245.39 C251.5,245.49 251.66,246.3 251.68,246.41 C251.79,247.01 251.87,247.62 251.91,248.22 C251.99,249.68 252.1,251.18 252.24,252.68 C252.39,254.37 252.58,256.11 252.8,257.86 C253.13,260.17 253.1,262.21 253.08,263.71 C253.07,264.38 253.06,264.96 253.09,265.4 C253.1,265.57 253.1,265.75 253.11,265.93 C253.13,267.57 253.22,269.42 253.31,271.37 C253.31,271.52 253.36,272.66 253.37,272.8 C253.39,273.38 253.39,273.96 253.34,274.53 C253.16,276.78 253.01,279.13 252.93,281.52 C252.92,281.94 252.83,285.23 252.82,285.64 C252.81,285.83 252.8,286.03 252.79,286.22 C252.7,287.6 252.52,288.79 252.37,289.75 C252.31,290.14 252.25,290.53 252.21,290.93 C252.2,291.03 252.19,291.13 252.17,291.22 C251.86,293.58 251.56,296.31 251.26,299.54 C251.22,299.94 251.17,300.34 251.1,300.73 C248.57,314.72 244.98,327.96 240.43,340.08 C240.36,340.25 240.3,340.42 240.23,340.58 C235.03,352.95 228.27,365.23 220.68,376.08 C220.38,376.51 220.05,376.93 219.71,377.32 C218.01,379.25 216.33,381.24 214.73,383.24 C214.66,383.33 214.59,383.41 214.51,383.5 C214.28,383.78 214.06,384.07 213.83,384.37 C213.16,385.23 212.34,386.3 211.29,387.4 C211.1,387.6 210.91,387.79 210.71,387.98 C210.43,388.24 208.25,390.27 207.98,390.53 C206.37,392.08 204.71,393.74 203.05,395.48 C202.52,396.03 201.95,396.54 201.33,396.99 C200.79,397.4 196.43,400.66 195.88,401.07 C195.77,401.15 195.66,401.23 195.54,401.31 C195.35,401.44 194.86,401.86 194.5,402.16 C193.15,403.3 191.34,404.82 188.95,406.05 C188.51,406.29 185.03,408.24 184.59,408.48 C183.11,409.38 181.73,410.22 180.44,411 C179.7,411.45 178.93,411.82 178.13,412.12 C177.75,412.26 174.73,413.39 174.36,413.53 C170.27,415.12 167.8,416.24 167.77,416.26 C167.66,416.31 167.55,416.34 167.44,416.39 C167.2,416.49 166.95,416.59 166.71,416.68 C166.49,416.76 166.27,416.83 166.05,416.9 C165.82,416.97 165.59,417.03 165.36,417.08 C165.11,417.15 164.87,417.2 164.62,417.25 C164.54,417.27 164.46,417.29 164.38,417.31 C164.3,417.32 161.91,417.75 157.7,418.78 C157.3,418.89 154.04,419.72 153.63,419.83 C152.77,420.05 151.88,420.18 150.99,420.23 C150.68,420.25 149.15,420.33 146.39,420.49 C143.37,420.76 141.68,420.91 141.35,420.94 C140.37,421.06 139.44,421.11 138.58,421.11 C136.86,421.11 135.4,420.92 134.29,420.78 C133.91,420.73 133.4,420.66 133.22,420.65 C133.03,420.65 132.85,420.64 132.66,420.63 C131.97,420.58 126.47,420.22 125.79,420.17 C124.87,420.11 123.97,419.96 123.09,419.73 C120.89,419.13 118.66,418.58 116.44,418.08 C116.06,418 113,417.34 112.62,417.26 C112.29,417.19 111.96,417.11 111.63,417.01 C110.01,416.54 108.66,415.95 107.68,415.53 C107.39,415.4 107.09,415.27 106.79,415.16 C106.75,415.14 106.7,415.13 106.66,415.11 C105.84,414.79 99.3,412.27 98.48,411.96 C98.01,411.78 97.54,411.56 97.08,411.32 C90.64,407.97 84.39,404.07 78.38,399.65 C75.06,395.52 71.84,391.13 68.74,386.48 C42.26,346.75 27.67,293.66 27.67,237 C27.67,236.69 27.68,236.38 27.68,236.07 C27.97,238.06 28.66,242.85 29.67,249.9 Z M167.66,442.87 C167.71,442.86 167.75,442.84 167.8,442.83 C168.08,442.74 169.44,442.32 171.89,441.55 C174.83,440.1 176.47,439.29 176.79,439.12 C176.85,439.09 176.9,439.07 176.96,439.04 C179.03,438.05 181.23,437 183.55,435.88 C183.71,435.81 183.86,435.73 184.03,435.66 C184.41,435.45 185.3,434.83 185.96,434.36 C186.9,433.7 187.96,432.96 189.16,432.21 C189.6,431.93 191.79,430.48 195.73,427.89 C199.88,424.31 202.18,422.32 202.64,421.92 C202.69,421.88 202.74,421.84 202.78,421.8 C203.14,421.5 205.99,419.11 206.34,418.81 C206.71,418.45 207.2,417.9 207.68,417.36 C208.23,416.76 208.78,416.15 209.34,415.57 C210.06,414.8 215.87,408.65 216.59,407.88 C225.9,396.25 234.37,382.72 241.11,368.7 C247.33,354.68 252.63,338.57 256.47,322.07 C256.67,320.89 258.29,311.4 258.5,310.21 C258.63,309.39 258.8,308.53 258.96,307.68 C259.15,306.73 259.31,305.9 259.41,305.17 C259.46,304.61 259.89,300.13 259.94,299.57 C260.3,295.99 260.69,292.42 261.1,288.93 C261.13,287.97 261.36,280.29 261.39,279.33 C261.41,277.79 261.49,276.38 261.56,275.12 C261.65,273.58 261.73,272.24 261.66,271.25 C261.65,271.12 261.64,271 261.64,270.87 C261.6,270.03 261.33,263.29 261.3,262.45 C261.3,262.38 261.3,262.31 261.29,262.24 C261.28,261.8 261.23,259.59 261.13,255.61 C260.75,252.27 260.54,250.41 260.5,250.04 C259.87,244.3 259.53,240.49 259.4,238.91 C259.08,237.31 258.36,233.56 257.43,228.18 C257.38,227.83 257.09,226.11 256.58,223.02 C255.63,219.5 255.1,217.55 255,217.16 C254.97,217.08 254.95,216.99 254.93,216.91 C254.75,216.18 253.3,210.34 253.12,209.61 C253.08,209.45 253.04,209.29 253,209.13 C252.89,208.58 252.49,207.5 252.1,206.47 C251.7,205.39 251.25,204.18 250.82,202.82 C250.58,202.09 248.64,196.25 248.39,195.52 C247.15,192.82 246.01,190.26 244.93,187.71 C244.91,187.68 244.9,187.64 244.89,187.61 C244.73,187.23 243.45,184.16 243.29,183.78 C243.13,183.47 242.88,183.02 242.63,182.59 C242.27,181.96 241.91,181.34 241.57,180.69 C240.18,178.2 238.79,175.56 237.41,172.84 C231.48,163.61 224.87,155.41 218.25,149.1 C212.2,144.03 205.63,139.97 198.72,137.03 C196.71,136.59 194.9,136.13 193.21,135.63 C192.7,135.49 192.24,135.35 191.87,135.23 C191.74,135.22 190.68,135.16 190.55,135.15 C190.45,135.14 190.35,135.13 190.25,135.13 C188.76,135 187.27,134.83 185.83,134.61 C184.73,134.72 183.61,134.82 182.44,134.88 C181.42,134.97 180.53,134.97 179.84,134.96 C178.54,135.31 177.27,135.61 176.05,135.85 C175.3,136.01 174.56,136.15 173.83,136.26 C173.71,136.32 172.76,136.73 172.64,136.78 C172.55,136.82 172.47,136.85 172.38,136.89 C170.53,137.64 169.02,138.17 167.86,138.56 C166.78,139.23 165.33,140.08 163.55,141.03 C163.44,141.1 163.32,141.15 163.2,141.21 C163.11,141.26 162.31,141.65 162.21,141.7 C161.56,142.26 160.92,142.78 160.28,143.29 C159.19,144.15 158.1,144.96 157.02,145.71 C156.52,146.29 155.86,147.04 155.03,147.83 C154.12,148.75 153.21,149.6 152.39,150.36 C151.4,151.73 150.42,152.99 149.42,154.2 C149.34,154.31 149.25,154.41 149.16,154.51 C149.06,154.62 148.28,155.53 148.18,155.65 C148.17,155.66 148.16,155.67 148.16,155.68 C147.87,156.2 147.57,156.7 147.27,157.18 C146.29,158.81 145.24,160.4 144.16,161.93 C140.87,168.33 138.08,175.15 136.06,181.73 C134.51,188.14 133.45,195.07 132.92,202.35 C133.03,204.41 133.07,206.17 133.04,207.8 C133.05,208.41 133.03,208.92 133.01,209.31 C133.03,209.48 133.2,210.78 133.22,210.94 C133.23,211.01 133.24,211.09 133.25,211.16 C133.41,212.62 133.53,214.05 133.59,215.41 C133.84,216.56 134.08,217.71 134.27,218.85 C135.42,224.74 136.81,228.69 137.56,230.83 C138.39,233.2 140.33,238.75 136.57,244.52 C134.23,248.12 130.34,250.44 126.07,250.78 C125.69,250.81 125.32,250.83 124.95,250.83 C118.44,250.83 112.84,246.27 111.46,239.99 C111.45,239.99 111.45,239.98 111.44,239.97 C110.53,237.35 108.62,231.9 107.08,223.93 C107.05,223.79 107.03,223.65 107,223.5 C106.87,222.68 106.6,221.5 106.33,220.26 C106.12,219.34 105.99,218.31 105.97,217.37 C105.96,216.48 105.89,215.48 105.77,214.39 C105.74,214.15 105.49,212.23 105.45,211.99 C105.42,211.73 105.39,211.46 105.38,211.19 C105.28,209.87 105.34,208.77 105.37,208.12 C105.37,208.09 105.38,207.89 105.38,207.86 C105.38,207.74 105.38,207.62 105.38,207.51 C105.4,206.34 105.36,204.9 105.25,203.1 C105.21,202.5 105.21,201.91 105.25,201.31 C105.89,192 107.24,183.08 109.28,174.77 C109.34,174.53 109.41,174.29 109.48,174.05 C112.13,165.31 115.7,156.62 120.09,148.24 C120.42,147.62 120.79,147.02 121.21,146.46 C122.06,145.3 122.88,144.06 123.65,142.77 C123.72,142.66 123.79,142.54 123.87,142.43 C123.93,142.33 124.01,142.18 124.1,142.03 C124.52,141.27 125.11,140.24 125.94,139.12 C126.15,138.85 126.36,138.58 126.59,138.31 C126.75,138.13 128.01,136.68 128.16,136.5 C128.97,135.52 129.8,134.4 130.66,133.18 C131.25,132.33 131.95,131.54 132.72,130.84 C133.66,130 134.63,129.12 135.42,128.31 C135.58,128.14 135.75,127.98 135.91,127.82 C136.02,127.71 136.12,127.59 136.22,127.48 C137.18,126.37 138.73,124.59 141.06,123.11 C141.73,122.66 142.42,122.14 143.11,121.6 C143.82,121.03 144.55,120.42 145.33,119.73 C146.23,118.93 147.23,118.26 148.31,117.72 C148.55,117.61 150.43,116.66 150.67,116.55 C152.81,115.39 154.12,114.5 154.13,114.49 C155.61,113.46 157.21,112.77 158.86,112.39 C159.33,112.25 160.33,111.91 161.84,111.3 C162.11,111.19 164.25,110.27 164.51,110.15 C165.71,109.63 166.98,109.29 168.28,109.12 C168.96,109.04 169.72,108.91 170.52,108.74 C171.34,108.58 172.23,108.36 173.17,108.1 C176.19,107.16 178.72,107.25 180.11,107.29 C180.13,107.29 180.24,107.29 180.25,107.29 C180.48,107.27 180.7,107.26 180.93,107.25 C181.77,107.22 182.91,107.1 184.12,106.98 C184.2,106.97 184.81,106.91 184.89,106.9 C186.18,106.77 187.49,106.82 188.77,107.06 C189.92,107.27 191.14,107.43 192.39,107.54 C192.65,107.56 194.78,107.69 195.05,107.7 C195.45,107.73 195.84,107.77 196.24,107.83 C198.02,108.1 199.42,108.57 200.26,108.86 C200.28,108.87 200.48,108.93 200.51,108.94 C200.63,108.98 200.75,109.01 200.87,109.05 C202.22,109.45 203.78,109.83 205.64,110.21 C206.47,110.39 207.27,110.63 208.06,110.95 C218.19,115.07 227.72,120.88 236.41,128.21 C236.6,128.38 236.8,128.55 236.99,128.73 C245.58,136.87 253.7,146.91 261.11,158.56 C261.36,158.95 261.58,159.35 261.79,159.76 C263.13,162.42 264.48,164.98 265.82,167.38 C265.87,167.47 265.92,167.56 265.97,167.66 C266.17,168.04 266.39,168.42 266.61,168.79 C267.14,169.72 267.81,170.88 268.44,172.24 C268.53,172.42 268.61,172.61 268.69,172.79 C268.86,173.21 270.24,176.52 270.41,176.94 C271.47,179.42 272.58,181.93 273.82,184.6 C274.04,185.08 274.23,185.56 274.4,186.06 C274.67,186.87 276.84,193.4 277.11,194.21 C277.14,194.31 277.17,194.4 277.2,194.49 C277.41,195.15 277.7,195.95 278.01,196.78 C278.66,198.52 279.47,200.68 280.01,203.14 C280.13,203.61 280.71,205.92 281.74,210.09 C282.78,213.92 283.35,216.05 283.46,216.47 C283.58,216.92 283.68,217.37 283.76,217.82 C283.85,218.4 284.62,222.99 284.71,223.57 C285.84,230.16 286.66,234.18 286.67,234.22 C286.68,234.27 286.68,234.33 286.7,234.39 C286.73,234.59 286.76,234.8 286.79,235 C286.83,235.27 286.87,235.53 286.89,235.8 C286.89,235.85 286.9,235.89 286.91,235.93 C286.91,235.97 287.22,239.94 287.99,246.98 C288.06,247.59 288.62,252.48 288.69,253.09 C288.73,253.49 288.76,253.91 288.77,254.32 C288.79,254.92 288.87,257.9 289.02,263.26 C289.17,267.06 289.25,269.17 289.27,269.59 C289.43,272.22 289.3,274.59 289.18,276.69 C289.12,277.78 289.05,278.81 289.04,279.77 C289.04,279.86 289.04,279.94 289.04,280.02 C289.01,281.06 288.76,289.33 288.73,290.36 C288.72,290.78 288.69,291.2 288.64,291.61 C288.22,295.11 287.82,298.69 287.47,302.25 C287.41,302.83 286.97,307.48 286.92,308.06 C286.9,308.21 286.89,308.36 286.86,308.5 C286.66,310.13 286.37,311.6 286.12,312.9 C286,313.54 285.88,314.17 285.77,314.83 C285.63,315.6 284.57,321.8 284.44,322.57 C277.53,346.15 267.7,367.78 255.25,386.47 C229.92,424.48 196.8,445.41 162,445.41 C161.31,445.41 160.63,445.39 159.94,445.37 C161.48,444.87 166.89,443.12 167.66,442.87 Z" id="a1R4PUUXU"></path>
            </g>
            <g id="a1R4PUUXU-link" fill="#000000" fill-opacity="0" stroke="#000000" stroke-opacity="0">
                <path d="M162,0.93 C117.65,0.93 76.36,26.23 45.73,72.18 C16.24,116.4 0.01,174.93 0.01,237 C0.01,299.06 16.24,357.6 45.73,401.82 C76.36,447.77 117.65,473.07 162,473.07 C206.35,473.07 247.64,447.77 278.28,401.82 C307.76,357.6 323.99,299.06 323.99,237 C323.99,174.93 307.76,116.4 278.28,72.18 C247.64,26.23 206.35,0.93 162,0.93 Z M293.33,216.87 C290.96,205.9 289.64,199.81 289.38,198.59 C289.35,198.48 289.33,198.37 289.31,198.27 C289.05,196.86 288.5,195.11 287.92,193.25 C287.48,191.87 287.04,190.45 286.61,188.88 C286.3,187.82 283.82,179.35 283.51,178.29 C282.17,174.78 280.78,171.17 279.35,167.46 C279.34,167.42 279.32,167.37 279.3,167.33 C279.09,166.77 277.42,162.29 277.21,161.72 C276.89,160.98 276.47,160.11 276.02,159.2 C275.63,158.41 275.24,157.62 274.87,156.81 C274.35,155.71 270.18,146.86 269.66,145.75 C261.91,131.77 252.94,119.11 243.7,109.09 C234.95,100.37 224.98,92.94 214.82,87.57 C214.08,87.29 208.17,85.01 207.43,84.73 C206.73,84.46 206.04,84.17 205.35,83.87 C205.16,83.79 204.97,83.7 204.78,83.62 C203.75,83.4 202.74,83.18 201.73,82.97 C201.67,82.96 201.6,82.94 201.54,82.93 C199.3,82.42 197.12,81.89 195.04,81.35 C194.51,81.31 190.26,81.03 189.72,80.99 C188.31,80.94 187.09,80.78 186.18,80.66 C185.97,80.64 185.76,80.6 185.55,80.58 C185.51,80.59 185.47,80.59 185.44,80.59 C184.88,80.64 180.4,81.05 179.84,81.1 C179.67,81.11 179.5,81.12 179.34,81.13 C178.13,81.2 176.98,81.26 175.89,81.32 C175.61,81.39 173.37,81.96 173.09,82.03 C173.04,82.05 173,82.06 172.96,82.07 C169.89,82.82 167.59,83.32 166.14,83.61 C164.74,84.22 162.47,85.17 159.55,86.3 C159.49,86.32 159.44,86.34 159.38,86.36 C159.21,86.43 158.34,86.75 156.78,87.34 C154.84,88.51 153.76,89.16 153.55,89.3 C153.41,89.37 153.27,89.46 153.14,89.53 C153.01,89.61 151.96,90.19 151.83,90.26 C150.69,90.91 149.49,91.58 148.25,92.27 C148.19,92.3 148.14,92.33 148.09,92.36 C147.87,92.53 147.56,92.79 147.31,93 C146.56,93.64 145.63,94.42 144.52,95.21 C144.08,95.54 140.57,98.16 140.13,98.49 C138.42,100.26 136.73,101.94 135.09,103.51 C135.05,103.55 135.01,103.58 134.98,103.61 C134.74,103.83 132.87,105.58 132.64,105.8 C132.49,105.99 132.25,106.3 132.06,106.54 C131.64,107.09 131.21,107.64 130.78,108.16 C129.11,110.24 127.36,112.33 125.56,114.38 C119.3,123.44 113.71,133.62 109.37,143.9 C105.51,154.23 102.44,165.57 100.22,177.61 C99.92,180.85 99.61,183.69 99.27,186.29 C99.19,187 99.08,187.69 98.98,188.37 C98.92,188.79 98.86,189.21 98.82,189.5 C98.81,189.88 98.73,192.9 98.72,193.28 C98.72,193.33 98.72,193.38 98.71,193.43 C98.62,195.94 98.48,198.43 98.3,200.83 C98.31,200.9 98.33,201.47 98.33,201.54 C98.42,203.55 98.51,205.46 98.54,207.36 C98.6,208.65 98.59,209.79 98.57,210.71 C98.57,211.25 98.56,211.98 98.58,212.22 C98.6,212.35 98.61,212.42 98.62,212.54 C98.89,214.63 99.12,216.74 99.31,218.81 C99.44,220.3 99.55,221.79 99.65,223.26 C99.72,223.59 100.23,226.27 100.29,226.6 C100.3,226.66 100.31,226.72 100.32,226.77 C100.96,230.27 101.32,232.77 101.51,234.19 C101.9,235.57 102.57,238 103.34,241.26 C103.36,241.33 103.38,241.4 103.39,241.47 C103.45,241.74 103.95,243.97 104.01,244.25 C104.49,245.49 104.92,246.69 105.35,247.88 C105.99,249.7 106.55,251.44 107.07,253.18 C107.16,253.36 107.26,253.54 107.35,253.73 C107.71,254.43 108.18,255.36 108.65,256.46 C109.3,257.91 109.89,259.33 110.45,260.72 C111.42,262.28 112.29,263.8 113.11,265.32 C113.16,265.41 113.21,265.5 113.26,265.59 C113.34,265.76 114.03,267.1 114.12,267.27 C114.4,267.63 114.77,268.11 115.18,268.68 C116.26,270.15 117.31,271.7 118.31,273.31 C122.15,277.72 126.16,281.44 129.97,284.13 C132.91,285.68 136.04,286.8 139.3,287.46 C140.38,287.37 141.4,287.34 142.39,287.35 C142.4,287.34 142.42,287.34 142.43,287.34 C143.26,287.13 144.06,286.96 144.84,286.83 C145.29,286.62 145.77,286.42 146.26,286.22 C149.15,284.92 151.16,283.34 152.38,282.38 C158.7,277.4 164.26,278.34 167.82,279.99 C172.56,282.2 175.66,286.92 175.82,292.14 C175.98,297.34 173.24,301.97 169.06,304.46 C167.02,306.05 162.9,309.15 157.06,311.7 C156.83,311.8 156.59,311.89 156.36,311.98 C156.13,312.08 155.58,312.35 155.18,312.56 C155.15,312.57 154.96,312.66 154.94,312.67 C153.22,313.54 151.33,314.03 149.4,314.12 C149.39,314.12 149.38,314.12 149.38,314.12 C149.24,314.16 148.14,314.49 148.01,314.53 C147.47,314.68 146.93,314.8 146.38,314.89 C144.43,315.21 142.83,315.1 141.97,315.01 C141.87,315.01 141.51,315.02 140.73,315.12 C140.1,315.21 139.47,315.26 138.84,315.26 C138.13,315.26 137.43,315.2 136.73,315.1 C129.43,313.97 122.47,311.6 116.03,308.04 C115.64,307.83 115.27,307.6 114.9,307.35 C108.61,303.05 102.44,297.37 96.56,290.45 C96.08,289.88 95.64,289.26 95.25,288.62 C94.46,287.32 93.67,286.13 92.82,284.98 C92.72,284.85 92.63,284.72 92.54,284.59 C92.5,284.54 92.42,284.43 92.33,284.32 C91.85,283.71 91.12,282.77 90.39,281.57 C90.23,281.3 90.07,281.02 89.93,280.73 C89.8,280.49 88.83,278.58 88.71,278.35 C88.02,277.08 87.26,275.79 86.39,274.43 C85.94,273.71 85.56,272.96 85.24,272.18 C84.6,270.58 83.99,269.07 83.38,267.73 C83.28,267.51 83.18,267.29 83.1,267.07 C82.99,266.84 82.85,266.58 82.72,266.33 C82.09,265.09 81.14,263.24 80.51,260.91 C80.13,259.65 79.72,258.39 79.25,257.06 C78.82,255.85 78.37,254.63 77.85,253.32 C77.6,252.66 77.39,251.98 77.23,251.28 C77.15,250.91 76.49,247.93 76.41,247.55 C75.45,243.55 74.7,241.1 74.7,241.08 C74.69,241.05 74.68,241.02 74.67,240.99 C74.55,240.59 74.45,240.18 74.36,239.76 C74.33,239.58 74.31,239.38 74.27,239.19 C74.24,238.97 74.19,238.74 74.17,238.51 C74.17,238.49 73.89,236.1 73.11,231.76 C73.03,231.35 72.39,228.01 72.31,227.6 C72.2,227.01 72.12,226.41 72.09,225.8 C72,224.33 71.89,222.82 71.75,221.32 C71.6,219.62 71.41,217.88 71.19,216.14 C70.86,213.83 70.89,211.81 70.91,210.31 C70.92,209.64 70.93,209.06 70.91,208.63 C70.9,208.44 70.89,208.25 70.88,208.06 C70.86,206.47 70.78,204.68 70.69,202.78 C70.69,202.62 70.63,201.35 70.62,201.19 C70.6,200.63 70.6103425,200.06 70.66,199.48 C70.84,197.24 70.98,194.88 71.07,192.49 C71.07,192.45 71.07,192.15 71.08,192.11 C71.11,190.87 71.14,189.61 71.18,188.34 C71.18,188.15 71.19,187.97 71.2,187.79 C71.3,186.41 71.48,185.21 71.62,184.26 C71.68,183.87 71.74,183.48 71.79,183.08 C71.8,182.99 71.81,182.89 71.82,182.79 C72.14,180.37 72.44,177.65 72.73,174.47 C72.77,174.07 72.82,173.67 72.89,173.27 C75.43,159.29 79.02,146.05 83.57,133.93 C83.63,133.76 83.7,133.59 83.77,133.43 C88.96,121.06 95.72,108.78 103.31,97.92 C103.61,97.49 103.94,97.08 104.28,96.68 C106.01,94.74 107.68,92.75 109.26,90.77 C109.33,90.68 109.41,90.59 109.48,90.5 C109.71,90.22 109.94,89.93 110.17,89.63 C110.83,88.77 111.65,87.71 112.69,86.61 C112.89,86.41 113.09,86.21 113.29,86.02 C113.56,85.76 115.75,83.72 116.02,83.47 C117.61,81.95 119.27,80.28 120.95,78.52 C121.48,77.97 122.05,77.47 122.67,77.01 C123.21,76.61 127.55,73.36 128.1,72.95 C128.22,72.86 128.34,72.77 128.47,72.68 C128.65,72.55 129.14,72.14 129.5,71.84 C130.85,70.7 132.66,69.18 135.06,67.95 C136.18,67.33 137.26,66.72 138.3,66.14 C138.42,66.07 139.03,65.72 140.13,65.08 C142.17,63.84 143.3,63.16 143.53,63.02 C144.28,62.56 145.06,62.18 145.89,61.88 C146.26,61.74 149.26,60.61 149.64,60.47 C153.73,58.89 156.2,57.77 156.22,57.75 C156.34,57.7 156.46,57.66 156.58,57.61 C156.79,57.52 157,57.44 157.21,57.36 C157.45,57.28 157.68,57.2 157.91,57.12 C158.11,57.06 158.31,57.01 158.51,56.95 C158.77,56.89 159.03,56.83 159.29,56.77 C159.4,56.75 159.5,56.72 159.61,56.7 C159.69,56.69 162.07,56.26 166.28,55.23 C166.69,55.12 169.95,54.29 170.36,54.18 C171.23,53.96 172.11,53.82 173,53.78 C174.43,53.7 175.97,53.61 177.61,53.53 C178.11,53.48 182.14,53.12 182.65,53.08 C185.58,52.7 188.05,53.02 189.72,53.23 C190.09,53.28 190.6,53.35 190.78,53.36 C190.96,53.36 191.13,53.37 191.31,53.38 C192,53.43 197.53,53.79 198.22,53.84 C199.13,53.9 200.04,54.05 200.93,54.29 C202.99,54.85 205.22,55.4 207.54,55.93 C208.81,56.2 210.09,56.48 211.39,56.75 C211.72,56.82 212.03,56.9 212.35,56.99 C213.98,57.47 215.35,58.06 216.34,58.49 C216.64,58.62 216.93,58.75 217.23,58.86 C217.26,58.88 217.3,58.89 217.32,58.9 C218.14,59.21 224.68,61.73 225.5,62.04 C225.98,62.23 226.45,62.44 226.91,62.68 C233.36,66.03 239.6,69.94 245.61,74.36 C248.93,78.49 252.15,82.88 255.25,87.53 C281.74,127.25 296.33,180.34 296.33,237 C296.33,237.31 296.32,237.61 296.32,237.91 C295.92,235.11 294.93,228.09 293.33,216.87 Z M156.35,31.12 C156.29,31.15 156.23,31.16 156.18,31.18 C155.91,31.26 154.55,31.68 152.11,32.44 C149.16,33.91 147.53,34.72 147.2,34.88 C147.15,34.91 147.1,34.93 147.05,34.95 C146.39,35.27 141.12,37.8 140.46,38.12 C140.3,38.19 140.14,38.27 139.98,38.34 C139.59,38.55 138.7,39.18 138.04,39.64 C137.1,40.3 136.04,41.05 134.84,41.79 C134.41,42.08 132.21,43.52 128.27,46.11 C124.13,49.69 121.83,51.68 121.37,52.07 C121.32,52.12 121.26,52.16 121.21,52.21 C120.04,53.19 118.85,54.18 117.66,55.19 C117.29,55.55 116.8,56.1 116.32,56.63 C115.77,57.24 115.22,57.85 114.67,58.43 C113.94,59.2 108.13,65.35 107.41,66.12 C98.11,77.74 89.64,91.27 82.89,105.3 C76.68,119.31 71.37,135.42 67.53,151.92 C67.33,153.11 65.71,162.6 65.5,163.79 C65.37,164.61 65.2,165.46 65.04,166.3 C64.86,167.26 64.7,168.1 64.59,168.83 C64.54,169.39 64.11,173.86 64.06,174.42 C63.69,178.09 63.31,181.65 62.9,185.07 C62.87,186.03 62.64,193.71 62.61,194.67 C62.59,196.21 62.51,197.63 62.44,198.88 C62.35,200.42 62.27,201.75 62.34,202.74 C62.35,202.87 62.36,203.01 62.37,203.14 C62.4,203.98 62.66,210.71 62.7,211.55 C62.7,211.62 62.7,211.68 62.7,211.75 C62.72,212.41 62.85,217.72 62.87,218.38 C63.1,220.4 63.31,222.27 63.5,223.97 C64.13,229.7 64.47,233.5 64.6,235.09 C64.92,236.68 65.64,240.43 66.57,245.82 C66.62,246.17 66.91,247.89 67.42,250.98 C68.37,254.5 68.9,256.46 69,256.85 C69.02,256.93 69.04,257.01 69.06,257.09 C69.24,257.81 70.7,263.65 70.88,264.38 C70.92,264.54 70.96,264.71 71,264.87 C71.11,265.43 71.51,266.51 71.9,267.55 C72.3,268.61 72.75,269.82 73.18,271.17 C73.42,271.9 75.36,277.75 75.61,278.48 C76.87,281.22 78.01,283.79 79.07,286.29 C79.09,286.32 79.1,286.36 79.12,286.4 C79.27,286.78 80.54,289.83 80.7,290.22 C80.86,290.53 81.11,290.97 81.36,291.4 C81.72,292.03 82.08,292.66 82.43,293.3 C83.83,295.83 85.23,298.47 86.59,301.16 C92.52,310.39 99.13,318.59 105.75,324.9 C111.8,329.98 118.37,334.03 125.28,336.97 C127.31,337.42 129.13,337.88 130.8,338.37 C131.31,338.51 131.76,338.65 132.14,338.77 C132.26,338.78 133.3,338.84 133.43,338.85 C133.53,338.86 133.63,338.87 133.74,338.87 C135.24,339 136.73,339.17 138.18,339.39 C139.27,339.28 140.39,339.18 141.55,339.12 C142.58,339.03 143.48,339.03 144.16,339.04 C145.45,338.7 146.71,338.4 147.94,338.15 C148.68,338 149.42,337.86 150.16,337.74 C150.27,337.69 151.18,337.29 151.29,337.25 C151.4,337.2 151.5,337.16 151.61,337.11 C153.47,336.36 154.98,335.82 156.15,335.44 C157.23,334.77 158.68,333.91 160.45,332.96 C160.57,332.9 160.68,332.84 160.8,332.79 C160.9,332.74 161.69,332.35 161.79,332.3 C162.44,331.74 163.09,331.21 163.73,330.7 C164.81,329.85 165.9,329.04 166.98,328.29 C167.48,327.71 168.14,326.97 168.96,326.18 C169.88,325.24 170.79,324.39 171.62,323.64 C172.6,322.27 173.59,320.99 174.57,319.8 C174.66,319.69 174.75,319.58 174.84,319.48 C175.16,319.11 175.49,318.73 175.82,318.36 C175.82,318.35 175.83,318.34 175.83,318.34 C176.13,317.82 176.43,317.3 176.73,316.81 C177.72,315.18 178.76,313.59 179.85,312.07 C183.13,305.66 185.92,298.84 187.94,292.27 C189.49,285.87 190.54,278.94 191.09,271.65 C190.97,269.58 190.93,267.82 190.96,266.19 C190.95,265.67 190.97,265.18 190.99,264.69 C190.97,264.53 190.81,263.26 190.79,263.1 C190.77,263.01 190.76,262.92 190.75,262.82 C190.58,261.33 190.47,259.93 190.41,258.58 C190.16,257.45 189.92,256.3 189.73,255.15 C188.57,249.25 187.19,245.3 186.44,243.17 C185.61,240.8 183.68,235.27 187.41,229.5 C189.72,225.92 193.59,223.59 197.84,223.22 C204.84,222.62 211.07,227.32 212.54,234 C212.55,234.01 212.55,234.02 212.55,234.02 C213.47,236.64 215.38,242.09 216.92,250.07 C216.95,250.2 216.97,250.34 217,250.48 C217.13,251.34 217.4,252.54 217.69,253.82 C217.9,254.74 218.01,255.69 218.03,256.63 C218.04,257.5 218.11,258.51 218.23,259.61 C218.26,259.85 218.51,261.76 218.54,262 C218.58,262.27 218.6,262.53 218.62,262.79 C218.72,264.12 218.66,265.22 218.63,265.88 C218.63,265.91 218.62,266.12 218.62,266.15 C218.62,266.26 218.62,266.37 218.62,266.48 C218.6,267.65 218.64,269.1 218.75,270.9 C218.79,271.49 218.79,272.09 218.75,272.69 C218.11,282.01 216.75,290.94 214.72,299.22 C214.66,299.47 214.59,299.71 214.52,299.95 C211.87,308.68 208.3,317.36 203.91,325.75 C203.58,326.38 203.21,326.99 202.79,327.56 C201.93,328.72 201.13,329.92 200.35,331.22 C200.27,331.35 200.2,331.47 200.11,331.59 C200.06,331.68 199.98,331.83 199.9,331.97 C199.47,332.73 198.88,333.77 198.05,334.89 C197.85,335.16 197.64,335.42 197.42,335.67 C196.88,336.29 196.35,336.9 195.83,337.5 C195.03,338.49 194.19,339.6 193.35,340.8 C192.75,341.67 192.05,342.46 191.27,343.16 C190.16,344.15 189.33,344.91 188.6,345.67 C188.43,345.84 188.25,346.02 188.07,346.19 C187.98,346.3 187.88,346.41 187.78,346.52 C186.82,347.63 185.26,349.42 182.92,350.9 C182.26,351.34 181.59,351.85 180.9,352.39 C180.17,352.97 179.43,353.59 178.67,354.26 C177.77,355.05 176.77,355.73 175.7,356.27 C175.46,356.38 173.56,357.33 173.33,357.45 C171.18,358.6 169.88,359.49 169.87,359.5 C168.35,360.56 166.7,361.27 165,361.65 C164.49,361.81 163.53,362.13 162.16,362.68 C161.9,362.8 159.78,363.72 159.52,363.83 C158.31,364.35 157.05,364.7 155.74,364.87 C155.03,364.96 154.27,365.09 153.49,365.25 C152.64,365.42 151.75,365.64 150.82,365.89 C147.8,366.83 145.27,366.75 143.88,366.7 C143.87,366.7 143.75,366.7 143.74,366.7 C143.52,366.72 143.3,366.73 143.09,366.74 C142.3,366.77 141.22,366.88 140.07,367 C139.97,367.01 139.18,367.08 139.08,367.09 C138.63,367.14 138.18,367.16 137.73,367.16 C136.88,367.16 136.04,367.08 135.21,366.93 C134.08,366.72 132.87,366.56 131.62,366.46 C131.36,366.44 129.28,366.31 129.02,366.3 C128.58,366.27 128.14,366.23 127.7,366.16 C125.97,365.89 124.59,365.42 123.76,365.14 C123.74,365.13 123.54,365.07 123.52,365.06 C123.38,365.02 123.23,364.98 123.09,364.94 C121.78,364.55 120.23,364.16 118.34,363.78 C117.52,363.6 116.72,363.36 115.94,363.04 C105.81,358.92 96.27,353.11 87.59,345.78 C87.39,345.61 87.2,345.44 87.01,345.26 C78.41,337.12 70.29,327.08 62.88,315.43 C62.64,315.05 62.41,314.65 62.2,314.23 C60.88,311.61 59.53,309.05 58.18,306.61 C58.13,306.52 58.08,306.43 58.03,306.34 C57.82,305.95 57.6,305.57 57.38,305.19 C56.85,304.27 56.19,303.13 55.56,301.79 C55.47,301.59 55.39,301.39 55.3,301.19 C55.13,300.78 53.76,297.47 53.59,297.05 C52.55,294.62 51.43,292.11 50.17,289.38 C49.95,288.91 49.76,288.42 49.6,287.93 C49.32,287.11 47.16,280.59 46.89,279.78 C46.86,279.69 46.83,279.6 46.8,279.51 C46.59,278.85 46.3,278.06 45.99,277.22 C45.34,275.48 44.53,273.32 43.99,270.85 C43.87,270.39 43.29,268.07 42.25,263.9 C41.22,260.07 40.65,257.94 40.53,257.52 C40.41,257.08 40.32,256.63 40.24,256.17 C40.15,255.6 39.38,251 39.29,250.43 C38.15,243.84 37.34,239.81 37.33,239.77 C37.31,239.71 37.31,239.64 37.3,239.57 C37.25,239.35 37.23,239.13 37.2,238.91 C37.16,238.67 37.13,238.43 37.11,238.19 C37.1,238.15 37.09,238.1 37.09,238.06 C37.08,238.02 36.78,234.05 36,227.02 C35.8,225.21 35.57,223.15 35.31,220.91 C35.26,220.5 35.23,220.08 35.22,219.67 C35.21,219.19 35.15,216.82 35.05,212.54 C34.86,207.66 34.75,204.95 34.73,204.41 C34.56,201.77 34.7,199.4 34.82,197.29 C34.88,196.21 34.94,195.18 34.95,194.22 C34.95,194.14 34.95,194.05 34.96,193.96 C34.99,192.93 35.23,184.66 35.26,183.62 C35.27,183.21 35.31,182.8 35.35,182.39 C35.77,178.96 36.16,175.37 36.52,171.73 C36.58,171.15 37.02,166.51 37.08,165.93 C37.09,165.78 37.11,165.64 37.13,165.49 C37.34,163.86 37.62,162.38 37.87,161.07 C38,160.44 38.12,159.8 38.23,159.15 C38.36,158.38 39.42,152.2 39.55,151.43 C46.46,127.85 56.28,106.21 68.74,87.52 C94.08,49.52 127.2,28.59 162,28.59 C162.69,28.59 163.37,28.61 164.06,28.63 C164.06,28.63 157.12,30.87 156.35,31.12 Z M29.67,249.9 C29.98,252.14 30.31,254.54 30.67,257.14 C30.85,257.97 32.31,264.6 32.5,265.42 C32.5,265.46 32.51,265.49 32.52,265.52 C32.73,266.51 34.41,274.42 34.62,275.41 C34.65,275.52 34.67,275.62 34.69,275.73 C34.96,277.14 35.51,278.91 36.09,280.78 C36.52,282.15 36.96,283.57 37.39,285.12 C37.7,286.18 40.17,294.65 40.48,295.71 C41.83,299.21 43.22,302.83 44.65,306.55 C44.66,306.59 44.68,306.63 44.7,306.68 C44.91,307.24 46.58,311.72 46.79,312.28 C47.11,313.03 47.54,313.9 47.99,314.82 C48.38,315.62 48.77,316.42 49.15,317.23 C49.67,318.33 53.82,327.15 54.34,328.25 C62.09,342.22 71.06,354.89 80.3,364.91 C89.05,373.63 99.02,381.06 109.18,386.43 C109.92,386.71 115.82,388.98 116.55,389.27 C117.27,389.54 117.97,389.84 118.66,390.14 C118.85,390.22 119.03,390.3 119.22,390.38 C119.53,390.45 121.96,390.97 122.27,391.03 C122.33,391.04 122.39,391.06 122.45,391.07 C124.61,391.56 126.79,392.09 128.95,392.65 C129.48,392.69 133.74,392.98 134.27,393.01 C135.68,393.07 136.91,393.22 137.81,393.34 C138.03,393.36 138.24,393.4 138.45,393.42 C138.48,393.42 138.52,393.41 138.56,393.41 C139.12,393.36 143.62,392.96 144.19,392.91 C144.33,392.9 144.48,392.89 144.63,392.87 C144.86,392.86 146.02,392.8 148.1,392.68 C149.81,392.25 150.76,392 150.95,391.96 C150.98,391.95 151.01,391.94 151.04,391.93 C154.11,391.18 156.4,390.69 157.85,390.4 C159.26,389.79 161.52,388.84 164.44,387.7 C164.49,387.68 164.55,387.66 164.6,387.64 C164.86,387.54 166.96,386.76 167.22,386.66 C168.24,386.05 169.31,385.4 170.43,384.72 C170.58,384.63 170.72,384.54 170.87,384.46 C171.35,384.19 175.25,382.01 175.74,381.74 C175.79,381.7 175.85,381.68 175.91,381.64 C176.12,381.47 176.44,381.2 176.69,380.99 C177.44,380.36 178.37,379.58 179.47,378.79 C179.91,378.46 183.43,375.84 183.87,375.51 C185.56,373.76 187.24,372.09 188.89,370.5 C188.94,370.46 188.98,370.42 189.02,370.38 C189.26,370.16 191.13,368.41 191.36,368.2 C191.51,368 191.75,367.7 191.94,367.46 C192.36,366.91 192.79,366.36 193.22,365.84 C194.9,363.74 196.65,361.65 198.43,359.62 C204.69,350.57 210.28,340.38 214.62,330.11 C218.49,319.76 221.56,308.42 223.77,296.39 C224.08,293.1 224.4,290.25 224.73,287.7 C224.81,287 224.91,286.31 225.02,285.63 C225.08,285.21 225.14,284.79 225.17,284.51 C225.18,284.13 225.26,281.1 225.27,280.72 C225.27,280.67 225.28,280.63 225.28,280.58 C225.37,278.06 225.51,275.57 225.69,273.17 C225.69,273.11 225.67,272.67 225.67,272.61 C225.58,270.55 225.49,268.59 225.45,266.64 C225.39,265.35 225.41,264.23 225.42,263.3 C225.43,262.77 225.44,262.03 225.41,261.79 C225.39,261.66 225.39,261.59 225.37,261.46 C225.1,259.34 224.87,257.23 224.69,255.19 C224.55,253.71 224.44,252.21 224.34,250.74 C224.28,250.4 223.77,247.75 223.7,247.41 C223.69,247.35 223.68,247.29 223.67,247.23 C223.04,243.73 222.68,241.23 222.49,239.81 C222.09,238.43 221.43,236.01 220.65,232.75 C220.63,232.68 220.62,232.61 220.61,232.55 C220.54,232.27 220.05,230.04 219.99,229.76 C219.53,228.56 219.08,227.34 218.65,226.12 C218.01,224.29 217.44,222.56 216.93,220.83 C216.84,220.65 216.74,220.47 216.65,220.28 C216.29,219.58 215.81,218.65 215.35,217.54 C214.69,216.09 214.09,214.63 213.55,213.28 C212.6,211.76 211.71,210.22 210.88,208.69 C210.83,208.59 210.78,208.5 210.73,208.4 C210.65,208.23 209.96,206.89 209.88,206.73 C209.52,206.27 209.17,205.81 208.83,205.34 C207.75,203.87 206.69,202.31 205.69,200.7 C201.85,196.29 197.85,192.57 194.03,189.87 C191.09,188.32 187.97,187.21 184.7,186.54 C183.62,186.63 182.6,186.67 181.61,186.66 C181.6,186.66 181.59,186.66 181.58,186.67 C180.75,186.88 179.94,187.04 179.15,187.18 C178.7,187.39 178.22,187.59 177.73,187.78 C174.84,189.08 172.83,190.66 171.62,191.62 C165.3,196.6 159.74,195.67 156.18,194.02 C151.45,191.82 148.35,187.11 148.18,181.9 C148,176.68 150.75,172.04 154.94,169.55 C156.98,167.95 161.1,164.85 166.93,162.3 C167.17,162.2 167.41,162.1 167.66,162.01 C167.9,161.91 168.5,161.61 168.94,161.39 C168.95,161.38 169.03,161.34 169.04,161.34 C170.77,160.47 172.66,159.98 174.58,159.89 C174.6,159.89 174.61,159.89 174.62,159.89 C174.75,159.85 175.86,159.52 175.99,159.48 C176.52,159.33 177.07,159.2 177.61,159.11 C179.56,158.79 181.16,158.91 182.03,158.99 C182.11,159.02 182.46,158.99 183.24,158.88 C184.58,158.7 185.93,158.71 187.27,158.91 C194.57,160.04 201.53,162.41 207.97,165.96 C208.35,166.18 208.73,166.41 209.1,166.66 C215.39,170.96 221.56,176.65 227.43,183.57 C227.91,184.13 228.35,184.73 228.73,185.36 C229.52,186.68 230.33,187.88 231.19,189.04 C231.27,189.16 231.35,189.27 231.43,189.38 C231.47,189.43 231.55,189.54 231.64,189.65 C232.13,190.28 232.88,191.23 233.62,192.47 C233.78,192.73 233.92,193 234.06,193.27 C234.19,193.51 235.17,195.42 235.29,195.66 C235.99,196.95 236.76,198.26 237.59,199.56 C238.04,200.28 238.44,201.04 238.75,201.83 C239.37,203.35 240,204.93 240.62,206.28 C240.72,206.5 240.81,206.72 240.9,206.94 C241.01,207.17 241.15,207.43 241.28,207.69 C241.91,208.93 242.85,210.77 243.49,213.11 C243.86,214.34 244.28,215.6 244.75,216.95 C245.19,218.2 245.66,219.46 246.13,220.66 C246.4,221.34 246.61,222.03 246.77,222.74 C246.85,223.11 247.5,226.08 247.59,226.45 C248.54,230.45 249.29,232.91 249.3,232.93 C249.36,233.13 249.4,233.33 249.45,233.53 C249.51,233.75 249.57,233.97 249.62,234.2 C249.67,234.47 249.71,234.73 249.75,235 C249.77,235.17 249.81,235.34 249.83,235.51 C249.85,235.67 250.12,238.04 250.88,242.23 C251.07,243.21 251.27,244.26 251.48,245.39 C251.5,245.49 251.66,246.3 251.68,246.41 C251.79,247.01 251.87,247.62 251.91,248.22 C251.99,249.68 252.1,251.18 252.24,252.68 C252.39,254.37 252.58,256.11 252.8,257.86 C253.13,260.17 253.1,262.21 253.08,263.71 C253.07,264.38 253.06,264.96 253.09,265.4 C253.1,265.57 253.1,265.75 253.11,265.93 C253.13,267.57 253.22,269.42 253.31,271.37 C253.31,271.52 253.36,272.66 253.37,272.8 C253.39,273.38 253.39,273.96 253.34,274.53 C253.16,276.78 253.01,279.13 252.93,281.52 C252.92,281.94 252.83,285.23 252.82,285.64 C252.81,285.83 252.8,286.03 252.79,286.22 C252.7,287.6 252.52,288.79 252.37,289.75 C252.31,290.14 252.25,290.53 252.21,290.93 C252.2,291.03 252.19,291.13 252.17,291.22 C251.86,293.58 251.56,296.31 251.26,299.54 C251.22,299.94 251.17,300.34 251.1,300.73 C248.57,314.72 244.98,327.96 240.43,340.08 C240.36,340.25 240.3,340.42 240.23,340.58 C235.03,352.95 228.27,365.23 220.68,376.08 C220.38,376.51 220.05,376.93 219.71,377.32 C218.01,379.25 216.33,381.24 214.73,383.24 C214.66,383.33 214.59,383.41 214.51,383.5 C214.28,383.78 214.06,384.07 213.83,384.37 C213.16,385.23 212.34,386.3 211.29,387.4 C211.1,387.6 210.91,387.79 210.71,387.98 C210.43,388.24 208.25,390.27 207.98,390.53 C206.37,392.08 204.71,393.74 203.05,395.48 C202.52,396.03 201.95,396.54 201.33,396.99 C200.79,397.4 196.43,400.66 195.88,401.07 C195.77,401.15 195.66,401.23 195.54,401.31 C195.35,401.44 194.86,401.86 194.5,402.16 C193.15,403.3 191.34,404.82 188.95,406.05 C188.51,406.29 185.03,408.24 184.59,408.48 C183.11,409.38 181.73,410.22 180.44,411 C179.7,411.45 178.93,411.82 178.13,412.12 C177.75,412.26 174.73,413.39 174.36,413.53 C170.27,415.12 167.8,416.24 167.77,416.26 C167.66,416.31 167.55,416.34 167.44,416.39 C167.2,416.49 166.95,416.59 166.71,416.68 C166.49,416.76 166.27,416.83 166.05,416.9 C165.82,416.97 165.59,417.03 165.36,417.08 C165.11,417.15 164.87,417.2 164.62,417.25 C164.54,417.27 164.46,417.29 164.38,417.31 C164.3,417.32 161.91,417.75 157.7,418.78 C157.3,418.89 154.04,419.72 153.63,419.83 C152.77,420.05 151.88,420.18 150.99,420.23 C150.68,420.25 149.15,420.33 146.39,420.49 C143.37,420.76 141.68,420.91 141.35,420.94 C140.37,421.06 139.44,421.11 138.58,421.11 C136.86,421.11 135.4,420.92 134.29,420.78 C133.91,420.73 133.4,420.66 133.22,420.65 C133.03,420.65 132.85,420.64 132.66,420.63 C131.97,420.58 126.47,420.22 125.79,420.17 C124.87,420.11 123.97,419.96 123.09,419.73 C120.89,419.13 118.66,418.58 116.44,418.08 C116.06,418 113,417.34 112.62,417.26 C112.29,417.19 111.96,417.11 111.63,417.01 C110.01,416.54 108.66,415.95 107.68,415.53 C107.39,415.4 107.09,415.27 106.79,415.16 C106.75,415.14 106.7,415.13 106.66,415.11 C105.84,414.79 99.3,412.27 98.48,411.96 C98.01,411.78 97.54,411.56 97.08,411.32 C90.64,407.97 84.39,404.07 78.38,399.65 C75.06,395.52 71.84,391.13 68.74,386.48 C42.26,346.75 27.67,293.66 27.67,237 C27.67,236.69 27.68,236.38 27.68,236.07 C27.97,238.06 28.66,242.85 29.67,249.9 Z M167.66,442.87 C167.71,442.86 167.75,442.84 167.8,442.83 C168.08,442.74 169.44,442.32 171.89,441.55 C174.83,440.1 176.47,439.29 176.79,439.12 C176.85,439.09 176.9,439.07 176.96,439.04 C179.03,438.05 181.23,437 183.55,435.88 C183.71,435.81 183.86,435.73 184.03,435.66 C184.41,435.45 185.3,434.83 185.96,434.36 C186.9,433.7 187.96,432.96 189.16,432.21 C189.6,431.93 191.79,430.48 195.73,427.89 C199.88,424.31 202.18,422.32 202.64,421.92 C202.69,421.88 202.74,421.84 202.78,421.8 C203.14,421.5 205.99,419.11 206.34,418.81 C206.71,418.45 207.2,417.9 207.68,417.36 C208.23,416.76 208.78,416.15 209.34,415.57 C210.06,414.8 215.87,408.65 216.59,407.88 C225.9,396.25 234.37,382.72 241.11,368.7 C247.33,354.68 252.63,338.57 256.47,322.07 C256.67,320.89 258.29,311.4 258.5,310.21 C258.63,309.39 258.8,308.53 258.96,307.68 C259.15,306.73 259.31,305.9 259.41,305.17 C259.46,304.61 259.89,300.13 259.94,299.57 C260.3,295.99 260.69,292.42 261.1,288.93 C261.13,287.97 261.36,280.29 261.39,279.33 C261.41,277.79 261.49,276.38 261.56,275.12 C261.65,273.58 261.73,272.24 261.66,271.25 C261.65,271.12 261.64,271 261.64,270.87 C261.6,270.03 261.33,263.29 261.3,262.45 C261.3,262.38 261.3,262.31 261.29,262.24 C261.28,261.8 261.23,259.59 261.13,255.61 C260.75,252.27 260.54,250.41 260.5,250.04 C259.87,244.3 259.53,240.49 259.4,238.91 C259.08,237.31 258.36,233.56 257.43,228.18 C257.38,227.83 257.09,226.11 256.58,223.02 C255.63,219.5 255.1,217.55 255,217.16 C254.97,217.08 254.95,216.99 254.93,216.91 C254.75,216.18 253.3,210.34 253.12,209.61 C253.08,209.45 253.04,209.29 253,209.13 C252.89,208.58 252.49,207.5 252.1,206.47 C251.7,205.39 251.25,204.18 250.82,202.82 C250.58,202.09 248.64,196.25 248.39,195.52 C247.15,192.82 246.01,190.26 244.93,187.71 C244.91,187.68 244.9,187.64 244.89,187.61 C244.73,187.23 243.45,184.16 243.29,183.78 C243.13,183.47 242.88,183.02 242.63,182.59 C242.27,181.96 241.91,181.34 241.57,180.69 C240.18,178.2 238.79,175.56 237.41,172.84 C231.48,163.61 224.87,155.41 218.25,149.1 C212.2,144.03 205.63,139.97 198.72,137.03 C196.71,136.59 194.9,136.13 193.21,135.63 C192.7,135.49 192.24,135.35 191.87,135.23 C191.74,135.22 190.68,135.16 190.55,135.15 C190.45,135.14 190.35,135.13 190.25,135.13 C188.76,135 187.27,134.83 185.83,134.61 C184.73,134.72 183.61,134.82 182.44,134.88 C181.42,134.97 180.53,134.97 179.84,134.96 C178.54,135.31 177.27,135.61 176.05,135.85 C175.3,136.01 174.56,136.15 173.83,136.26 C173.71,136.32 172.76,136.73 172.64,136.78 C172.55,136.82 172.47,136.85 172.38,136.89 C170.53,137.64 169.02,138.17 167.86,138.56 C166.78,139.23 165.33,140.08 163.55,141.03 C163.44,141.1 163.32,141.15 163.2,141.21 C163.11,141.26 162.31,141.65 162.21,141.7 C161.56,142.26 160.92,142.78 160.28,143.29 C159.19,144.15 158.1,144.96 157.02,145.71 C156.52,146.29 155.86,147.04 155.03,147.83 C154.12,148.75 153.21,149.6 152.39,150.36 C151.4,151.73 150.42,152.99 149.42,154.2 C149.34,154.31 149.25,154.41 149.16,154.51 C149.06,154.62 148.28,155.53 148.18,155.65 C148.17,155.66 148.16,155.67 148.16,155.68 C147.87,156.2 147.57,156.7 147.27,157.18 C146.29,158.81 145.24,160.4 144.16,161.93 C140.87,168.33 138.08,175.15 136.06,181.73 C134.51,188.14 133.45,195.07 132.92,202.35 C133.03,204.41 133.07,206.17 133.04,207.8 C133.05,208.41 133.03,208.92 133.01,209.31 C133.03,209.48 133.2,210.78 133.22,210.94 C133.23,211.01 133.24,211.09 133.25,211.16 C133.41,212.62 133.53,214.05 133.59,215.41 C133.84,216.56 134.08,217.71 134.27,218.85 C135.42,224.74 136.81,228.69 137.56,230.83 C138.39,233.2 140.33,238.75 136.57,244.52 C134.23,248.12 130.34,250.44 126.07,250.78 C125.69,250.81 125.32,250.83 124.95,250.83 C118.44,250.83 112.84,246.27 111.46,239.99 C111.45,239.99 111.45,239.98 111.44,239.97 C110.53,237.35 108.62,231.9 107.08,223.93 C107.05,223.79 107.03,223.65 107,223.5 C106.87,222.68 106.6,221.5 106.33,220.26 C106.12,219.34 105.99,218.31 105.97,217.37 C105.96,216.48 105.89,215.48 105.77,214.39 C105.74,214.15 105.49,212.23 105.45,211.99 C105.42,211.73 105.39,211.46 105.38,211.19 C105.28,209.87 105.34,208.77 105.37,208.12 C105.37,208.09 105.38,207.89 105.38,207.86 C105.38,207.74 105.38,207.62 105.38,207.51 C105.4,206.34 105.36,204.9 105.25,203.1 C105.21,202.5 105.21,201.91 105.25,201.31 C105.89,192 107.24,183.08 109.28,174.77 C109.34,174.53 109.41,174.29 109.48,174.05 C112.13,165.31 115.7,156.62 120.09,148.24 C120.42,147.62 120.79,147.02 121.21,146.46 C122.06,145.3 122.88,144.06 123.65,142.77 C123.72,142.66 123.79,142.54 123.87,142.43 C123.93,142.33 124.01,142.18 124.1,142.03 C124.52,141.27 125.11,140.24 125.94,139.12 C126.15,138.85 126.36,138.58 126.59,138.31 C126.75,138.13 128.01,136.68 128.16,136.5 C128.97,135.52 129.8,134.4 130.66,133.18 C131.25,132.33 131.95,131.54 132.72,130.84 C133.66,130 134.63,129.12 135.42,128.31 C135.58,128.14 135.75,127.98 135.91,127.82 C136.02,127.71 136.12,127.59 136.22,127.48 C137.18,126.37 138.73,124.59 141.06,123.11 C141.73,122.66 142.42,122.14 143.11,121.6 C143.82,121.03 144.55,120.42 145.33,119.73 C146.23,118.93 147.23,118.26 148.31,117.72 C148.55,117.61 150.43,116.66 150.67,116.55 C152.81,115.39 154.12,114.5 154.13,114.49 C155.61,113.46 157.21,112.77 158.86,112.39 C159.33,112.25 160.33,111.91 161.84,111.3 C162.11,111.19 164.25,110.27 164.51,110.15 C165.71,109.63 166.98,109.29 168.28,109.12 C168.96,109.04 169.72,108.91 170.52,108.74 C171.34,108.58 172.23,108.36 173.17,108.1 C176.19,107.16 178.72,107.25 180.11,107.29 C180.13,107.29 180.24,107.29 180.25,107.29 C180.48,107.27 180.7,107.26 180.93,107.25 C181.77,107.22 182.91,107.1 184.12,106.98 C184.2,106.97 184.81,106.91 184.89,106.9 C186.18,106.77 187.49,106.82 188.77,107.06 C189.92,107.27 191.14,107.43 192.39,107.54 C192.65,107.56 194.78,107.69 195.05,107.7 C195.45,107.73 195.84,107.77 196.24,107.83 C198.02,108.1 199.42,108.57 200.26,108.86 C200.28,108.87 200.48,108.93 200.51,108.94 C200.63,108.98 200.75,109.01 200.87,109.05 C202.22,109.45 203.78,109.83 205.64,110.21 C206.47,110.39 207.27,110.63 208.06,110.95 C218.19,115.07 227.72,120.88 236.41,128.21 C236.6,128.38 236.8,128.55 236.99,128.73 C245.58,136.87 253.7,146.91 261.11,158.56 C261.36,158.95 261.58,159.35 261.79,159.76 C263.13,162.42 264.48,164.98 265.82,167.38 C265.87,167.47 265.92,167.56 265.97,167.66 C266.17,168.04 266.39,168.42 266.61,168.79 C267.14,169.72 267.81,170.88 268.44,172.24 C268.53,172.42 268.61,172.61 268.69,172.79 C268.86,173.21 270.24,176.52 270.41,176.94 C271.47,179.42 272.58,181.93 273.82,184.6 C274.04,185.08 274.23,185.56 274.4,186.06 C274.67,186.87 276.84,193.4 277.11,194.21 C277.14,194.31 277.17,194.4 277.2,194.49 C277.41,195.15 277.7,195.95 278.01,196.78 C278.66,198.52 279.47,200.68 280.01,203.14 C280.13,203.61 280.71,205.92 281.74,210.09 C282.78,213.92 283.35,216.05 283.46,216.47 C283.58,216.92 283.68,217.37 283.76,217.82 C283.85,218.4 284.62,222.99 284.71,223.57 C285.84,230.16 286.66,234.18 286.67,234.22 C286.68,234.27 286.68,234.33 286.7,234.39 C286.73,234.59 286.76,234.8 286.79,235 C286.83,235.27 286.87,235.53 286.89,235.8 C286.89,235.85 286.9,235.89 286.91,235.93 C286.91,235.97 287.22,239.94 287.99,246.98 C288.06,247.59 288.62,252.48 288.69,253.09 C288.73,253.49 288.76,253.91 288.77,254.32 C288.79,254.92 288.87,257.9 289.02,263.26 C289.17,267.06 289.25,269.17 289.27,269.59 C289.43,272.22 289.3,274.59 289.18,276.69 C289.12,277.78 289.05,278.81 289.04,279.77 C289.04,279.86 289.04,279.94 289.04,280.02 C289.01,281.06 288.76,289.33 288.73,290.36 C288.72,290.78 288.69,291.2 288.64,291.61 C288.22,295.11 287.82,298.69 287.47,302.25 C287.41,302.83 286.97,307.48 286.92,308.06 C286.9,308.21 286.89,308.36 286.86,308.5 C286.66,310.13 286.37,311.6 286.12,312.9 C286,313.54 285.88,314.17 285.77,314.83 C285.63,315.6 284.57,321.8 284.44,322.57 C277.53,346.15 267.7,367.78 255.25,386.47 C229.92,424.48 196.8,445.41 162,445.41 C161.31,445.41 160.63,445.39 159.94,445.37 C161.48,444.87 166.89,443.12 167.66,442.87 Z" id="a1R4PUUXU"></path>
            </g>
        </g>
    </g>
</svg>